# xmcd CD database file
#
# Track frame offsets:
#	150
#	15492
#	30582
#	47725
#	66952
#	81205
#	97030
#	115247
#	131425
#	146647
#	163742
#	181822
#
# Disc length: 2611 seconds
#
# Revision: 3
# Processed by: cddbd v1.5.2PL0 Copyright (c) Steve Scherf et al.
# Submitted via: CDex 1.79
#
DISCID=9d0a310c
DTITLE=Travis Tritt - Strong Enough
DYEAR=2002
DGENRE=Country
TTITLE0=You Can`t Count Me Out Yet
TTITLE1=Can`t Tell Me Nothin`
TTITLE2=Strong Enough To Be Your Man
TTITLE3=Country Ain`t Country
TTITLE4=If You`re Gonna Straighten Up (Brother Now`s The Time)
TTITLE5=Doesn`t Anyone Hurt Anymore
TTITLE6=You Really Wouldn`t Want Me That Way
TTITLE7=I Don`t Ever Want Her To Feel That Way Again
TTITLE8=Time To Get Crazy
TTITLE9=Now I`ve Seen It All
TTITLE10=God Must Be A Woman
TTITLE11=I Can`t Seem To Get Over You
EXTD=YEAR: 2002
EXTT0=
EXTT1=
EXTT2=
EXTT3=
EXTT4=
EXTT5=
EXTT6=
EXTT7=
EXTT8=
EXTT9=
EXTT10=
EXTT11=
PLAYORDER=
